<svg id="Layer_1" data-name="Layer 1" xmlns="http://www.w3.org/2000/svg" viewBox="0 0 222.49 207.14"><defs><style>.cls-1{fill:#ea8e10;}.cls-2{fill:#231f20;}.cls-3{fill:#f5a909;}.cls-4{fill:#12100b;}.cls-4,.cls-7{stroke:#4d4947;}.cls-11,.cls-4,.cls-9{stroke-width:6px;}.cls-5{fill:#d0d0d0;stroke-width:4px;}.cls-5,.cls-6{stroke:#231f20;}.cls-6,.cls-8{fill:#fff;}.cls-6{stroke-width:2px;}.cls-11,.cls-7,.cls-9{fill:none;}.cls-7{stroke-width:5px;}.cls-9{stroke:#13110c;}.cls-10{fill:#e30613;stroke:#dd1215;stroke-width:0.23px;}.cls-11{stroke:#f7f5f2;}</style></defs><title>bus (1)</title><path class="cls-1" d="M168,16.67a344,344,0,0,0-49.38-3.21,355.33,355.33,0,0,0-46.23,2.76V40.46H36.65v93.13H203.79V40.91H168V16.67Z" transform="translate(-8.95 -4.87)"/><path class="cls-2" d="M168,47.87V16.77c18.29,3.17,30.14,8.17,30.14,13.81a5.72,5.72,0,0,1,5.63,5.8V47.87Z" transform="translate(-8.95 -4.87)"/><path class="cls-2" d="M72.41,47.37V16.27c-18.29,3.17-30.14,8.17-30.14,13.81a5.72,5.72,0,0,0-5.63,5.8V47.37Z" transform="translate(-8.95 -4.87)"/><path class="cls-3" d="M213.1,132.78c-4.23-4.22-12.78-4.51-19.15-8.11-25.55-14.45-43.26-19-73.16-19h-1.14c-29.9,0-47.61,4.58-73.16,19-6.37,3.6-14.92,3.89-19.15,8.11-12,12-4.39,38-4.39,38A1.24,1.24,0,0,0,24.19,172H216.25a1.24,1.24,0,0,0,1.24-1.25S225.14,144.82,213.1,132.78Z" transform="translate(-8.95 -4.87)"/><path class="cls-3" d="M143.33,14.19c0-2.86-9.3-9.33-23.24-9.33s-23,6.47-23,9.33" transform="translate(-8.95 -4.87)"/><path class="cls-2" d="M216,172H24.43c-.73,0-1.31.83-1.31,1.86l3.52,8.5c0,1.08.56,2,1.25,2h13.4v26.13A1.48,1.48,0,0,0,42.69,212H81.94a1.48,1.48,0,0,0,1.39-1.55V194.13h72.94v16.33a1.48,1.48,0,0,0,1.4,1.55h39.84a1.48,1.48,0,0,0,1.4-1.55V184.33h13.63c.7,0,1.27-.89,1.27-2l3.52-8.5C217.32,172.83,216.73,172,216,172Z" transform="translate(-8.95 -4.87)"/><path class="cls-4" d="M162.68,155.44a7.06,7.06,0,0,1-7.06,7.06H84.82a7.06,7.06,0,0,1-7.06-7.06V128.88a7.06,7.06,0,0,1,7.06-7.07h70.79a7.06,7.06,0,0,1,7.06,7.07v26.56Z" transform="translate(-8.95 -4.87)"/><path class="cls-5" d="M213.37,147.78a15.25,15.25,0,1,1-15.26-15.25A15.25,15.25,0,0,1,213.37,147.78Z" transform="translate(-8.95 -4.87)"/><path class="cls-6" d="M207.56,147.78a9.44,9.44,0,1,1-9.44-9.44A9.44,9.44,0,0,1,207.56,147.78Z" transform="translate(-8.95 -4.87)"/><path class="cls-5" d="M57.57,147.78a15.25,15.25,0,1,1-15.26-15.25A15.25,15.25,0,0,1,57.57,147.78Z" transform="translate(-8.95 -4.87)"/><path class="cls-6" d="M51.76,147.78a9.44,9.44,0,1,1-9.44-9.44A9.44,9.44,0,0,1,51.76,147.78Z" transform="translate(-8.95 -4.87)"/><line class="cls-7" x1="70.88" y1="133.63" x2="151.66" y2="133.63"/><line class="cls-7" x1="70.88" y1="125.25" x2="151.66" y2="125.25"/><line class="cls-7" x1="70.88" y1="142.01" x2="151.66" y2="142.01"/><line class="cls-7" x1="70.88" y1="150.39" x2="151.66" y2="150.39"/><path class="cls-8" d="M115.52,91.79A1.25,1.25,0,0,1,114.27,93H43.56a1.25,1.25,0,0,1-1.25-1.25V57.37a1.25,1.25,0,0,1,1.25-1.25h70.71a1.25,1.25,0,0,1,1.24,1.25Z" transform="translate(-8.95 -4.87)"/><path class="cls-8" d="M198.12,91.79A1.25,1.25,0,0,1,196.88,93h-70.7a1.26,1.26,0,0,1-1.26-1.25V57.37a1.26,1.26,0,0,1,1.26-1.25h70.7a1.25,1.25,0,0,1,1.24,1.25Z" transform="translate(-8.95 -4.87)"/><path class="cls-2" d="M28.25,86.56A1.24,1.24,0,0,1,27,87.8H10.2A1.25,1.25,0,0,1,9,86.56v-24a1.25,1.25,0,0,1,1.25-1.24H27a1.23,1.23,0,0,1,1.24,1.24Z" transform="translate(-8.95 -4.87)"/><path class="cls-9" d="M18.6,87.8c0,5.76,8,10.42,17.89,10.42" transform="translate(-8.95 -4.87)"/><path class="cls-2" d="M212.14,86.56a1.25,1.25,0,0,0,1.24,1.24H230.2a1.25,1.25,0,0,0,1.24-1.24v-24a1.25,1.25,0,0,0-1.24-1.24H213.38a1.25,1.25,0,0,0-1.24,1.24Z" transform="translate(-8.95 -4.87)"/><path class="cls-9" d="M221.79,87.8c0,5.76-8,10.42-17.88,10.42" transform="translate(-8.95 -4.87)"/><path class="cls-10" d="M173.45,34.68A10.6,10.6,0,1,0,184,24.09,10.59,10.59,0,0,0,173.45,34.68Z" transform="translate(-8.95 -4.87)"/><path class="cls-10" d="M44.56,34.68a10.6,10.6,0,1,0,10.58-10.6A10.59,10.59,0,0,0,44.56,34.68Z" transform="translate(-8.95 -4.87)"/><path d="M74.52,24.13a24.48,24.48,0,0,1,4-.3,7.82,7.82,0,0,1,4.64,1.06,2.92,2.92,0,0,1,1.4,2.57c0,1.41-1.08,2.64-2.86,3.2v0c1.6.35,3.48,1.49,3.48,3.65a3.69,3.69,0,0,1-1.43,2.92c-1.18.93-3.08,1.36-5.84,1.36a29.39,29.39,0,0,1-3.39-.17V24.13Zm2.18,6h2c2.31,0,3.66-1,3.66-2.44,0-1.71-1.5-2.38-3.71-2.38a10.76,10.76,0,0,0-1.93.13V30.1Zm0,7a13.49,13.49,0,0,0,1.83.09c2.26,0,4.34-.71,4.34-2.83s-2-2.81-4.36-2.81H76.71v5.56Z" transform="translate(-8.95 -4.87)"/><path d="M90.3,23.94v8.63c0,3.27,1.68,4.65,3.94,4.65,2.51,0,4.11-1.43,4.11-4.65V23.94h2.21v8.5c0,4.48-2.73,6.31-6.4,6.31-3.46,0-6.07-1.71-6.07-6.23V23.94Z" transform="translate(-8.95 -4.87)"/><path d="M104.05,36.22a8.68,8.68,0,0,0,3.91,1c2.23,0,3.54-1,3.54-2.49s-.9-2.14-3.19-2.9c-2.76-.84-4.46-2.08-4.46-4.13,0-2.27,2.18-4,5.47-4a8.69,8.69,0,0,1,3.74.71l-.6,1.54a7.58,7.58,0,0,0-3.21-.69c-2.31,0-3.19,1.19-3.19,2.18,0,1.36,1,2,3.36,2.81,2.86,1,4.31,2.14,4.31,4.28s-1.93,4.19-5.92,4.19a9.84,9.84,0,0,1-4.31-.93Z" transform="translate(-8.95 -4.87)"/><path d="M121.89,32v1.41h-6.19V32Z" transform="translate(-8.95 -4.87)"/><path d="M124.55,24.13a24.47,24.47,0,0,1,4-.3,7.81,7.81,0,0,1,4.64,1.06,2.92,2.92,0,0,1,1.4,2.57c0,1.41-1.08,2.64-2.86,3.2v0c1.6.35,3.49,1.49,3.49,3.65a3.69,3.69,0,0,1-1.43,2.92c-1.18.93-3.09,1.36-5.85,1.36a29.35,29.35,0,0,1-3.39-.17V24.13Zm2.18,6h2c2.31,0,3.66-1,3.66-2.44,0-1.71-1.51-2.38-3.71-2.38a10.77,10.77,0,0,0-1.93.13V30.1Zm0,7a13.51,13.51,0,0,0,1.83.09c2.26,0,4.34-.71,4.34-2.83s-2-2.81-4.36-2.81h-1.81v5.56Z" transform="translate(-8.95 -4.87)"/><path d="M150,38a12.36,12.36,0,0,1-4.46.69c-4.77,0-8.35-2.6-8.35-7.37,0-4.56,3.59-7.65,8.83-7.65a10.3,10.3,0,0,1,4,.65l-.53,1.53a9,9,0,0,0-3.41-.6c-4,0-6.6,2.18-6.6,6,0,3.57,2.38,5.86,6.5,5.86a10,10,0,0,0,3.56-.6Z" transform="translate(-8.95 -4.87)"/><path d="M152.7,38.51V23.94h2.38l5.42,7.37a40.2,40.2,0,0,1,3,4.73l.05,0a55.79,55.79,0,0,1-.25-6v-6.1h2.06V38.51h-2.21l-5.37-7.39a44.38,44.38,0,0,1-3.16-4.87l-.08,0c.13,1.84.18,3.59.18,6v6.23Z" transform="translate(-8.95 -4.87)"/><path class="cls-11" d="M182.29,93.13c0-5.46-5.9-9.43-11.18-9.43s-11.18,4-11.18,9.43" transform="translate(-8.95 -4.87)"/></svg>