<?xml version="1.0"?>
<svg xmlns:rdf="http://www.w3.org/1999/02/22-rdf-syntax-ns#" xmlns="http://www.w3.org/2000/svg" xmlns:cc="http://web.resource.org/cc/" xmlns:xlink="http://www.w3.org/1999/xlink" xmlns:dc="http://purl.org/dc/elements/1.1/" enable-background="new 0 0 165.319 385.819" xml:space="preserve" height="385.82px" width="165.32px" version="1.1" y="0px" x="0px" viewBox="0 0 165.319 385.819">
<g id="Layer_2">
	<path stroke="#000" stroke-width=".25" d="m153.17 289.66c7.706 4.577 11.995 12.898 12.026 21.527 0.038 10.768-2.199 20.513-8.16 29.442-5.817 8.714-19.318 15.792-29.867 14.03-6-1.01 26-65 26-65z" fill="#B3B3B3"/>
	<path stroke="#000" stroke-width=".25" d="m154.17 310.16s4.5 13 0.5 20.5-8 16-14.5 19-8.5 4.5-13 4 27-43.5 27-43.5z"/>
	<path stroke="#000" stroke-width=".5" d="m128.17 267.16s11 0 17.5 6.5 15.5 15 14 31.5-4.5 17.5-9 19-14 6.5-14 6.5l-6-19-2.5-44.5z" fill="#333"/>
	<path stroke="#000" stroke-width=".25" d="m130.17 286.66s10.5 3.5 12.5 9.5 7.5 22.5 6.5 27-8 5-8 5l-4.5-3-6.5-38.5z" fill="#4D4D4D"/>
	<path stroke="#000" stroke-width=".25" d="m130.67 316.66s17.5 5.5 17 7 0 4 0 4l-37 16.5-9.5-16.5 3.5-7.5 26-3.5z" fill="#ccc"/>
	<path id="leg_right" d="m115.79 163.12c-0.652 1.471-0.206 3.571-0.238 5.014-0.074 3.363-1.191 6.635-2.888 9.519-4.522 7.688-6.488 17.45-8.804 25.968-1.216 4.473-2.295 8.978-3.457 13.464-1.379 5.326-0.879 9.239-0.294 14.712 0.53 4.953 1.065 9.905 1.603 14.858 1.806 16.667 3.626 33.333 5.452 49.998l2 19.5c3.499 1.338 7.055 2.558 10.643 3.632 5.042 1.509 11.676 2.6 16.243-0.815 2.906-2.174 1.567-3.905 0.744-7.058-0.85-3.261-1.414-6.556-1.441-9.933-0.027-3.361 0.182-6.202-1.297-9.301-1.354-2.836-2.689-4.714-2.023-8.019 0.506-2.51 1.088-5.006 1.632-7.507-0.378-4.905-0.755-9.811-1.132-14.716-0.281-3.658-0.563-7.316-0.844-10.975-0.171-2.217 0.079-4.609-0.674-6.742-0.771-2.181-2.252-3.702-2.257-6.188-0.007-2.944 0.614-5.953 0.908-8.88 0.414-4.137 0.226-7.663-0.391-11.611-0.616-3.955-1.104-7.445-1.585-11.414-1.084-8.928-2.303-17.417 1.971-25.969 1.92-3.841 1.16-8.877 1.503-13.003 0.479-5.778-2.507-8.271-7.808-6.934-1.678 0.423-5.45 0.326-6.806 1.4-0.32 0.29-0.57 0.63-0.74 1.01z" stroke="#000" stroke-width=".25" fill="#1A1A1A"/>
	<path stroke="#000" stroke-width=".25" d="m115.93 282.23c0.629 1.45 1.274 2.654 2.406 3.926 0.599 0.674 1.193 1.016 1.927 1.499 1.104 0.729 1.254 0.807 1.656 1.919 0.65 1.803 0.41 2.92 1.75 4.583 1.15 1.43 1.895 2.394 2.584 4.1 1.33 3.286 3.489 6.916 3.958 10.599-1.651 0.403-3.454-1.014-4.876-1.698-1.872-0.901-3.756-1.485-5.747-1.936-2.006-0.453-3.751-0.826-5.667-1.981-1.685-1.016-3.221-0.96-4.083-2.926-1.558-3.553-1.56-8.43-1.91-12.408-0.097-1.101-0.479-2.239-0.673-3.333-0.18-1.011-0.02-2.044-0.317-2.999-0.714-2.289-0.942-4.696 2.344-4.602 2.68 0.08 5.65 2.95 6.65 5.26z" fill="#0D0D0D"/>
	<path stroke="#000" stroke-width=".25" d="m115.66 277c1.462-0.537 0.82-1.798 1.254-2.763 0.607-1.347 0.705-0.899 1.99-0.658 1.357 0.255 4.762 1.011 5.898-0.027-1.972 0.379-8.838-1.369-8.832-3.917 1.473-0.813 4.369-0.104 6.166-0.048-1.672-0.911-4.662-1.658-5.973-3.269-2.195-2.696 3.961-1.988 5.306-2.749-1.114-0.796-4.558-0.663-5.146-1.733-0.729-1.327 3.37-2.067 4.205-2.323 0.114-0.336 0.112-0.551 0-0.887-2.202-0.828-6.78-3.253-7.907-5.323 3.247-0.416 6.288 0.923 9.59 0.542-0.012-0.912-2.42-1.935-2.965-2.6-0.168-0.206 0.183-0.688-0.042-0.941-0.341-0.384-0.888-0.259-1.283-0.476-0.757-0.415-1.548-0.615-2.307-1 0.376-1.375 3.513-0.339 4.28-1.526-2.319-0.146-4.719-0.81-6.899-1.473-1.858-0.564-4.196-0.834-5.04-2.933 1.336-1.041 4.634 0.296 6.299 0.34 1.49 0.039 5.51-0.025 6.307-1.269-1.672-0.106-3.551-0.262-5.262-0.455-0.122-0.185-0.123-0.369-0.002-0.555 0.699-0.152 1.215-0.292 1.915-0.444 0.12-0.185 0.12-0.37-0.001-0.555-1.418 0.066-3.661-0.563-4.633-1.381-0.918-0.772-1.415-2.142-2.232-3.083-1.382-1.591-1.629-1.735-1.758-3.926-0.078-1.31-0.676-3.611-2.609-2.942-0.543 1.758-1.981 2.739-2.4 4.617-0.438 1.956-0.656 3.834-0.657 5.992-0.001 2.02-0.386 3.665-0.333 5.666 0.054 2.046 0.832 3.771 1.008 5.659 0.174 1.878 0.092 4.005 0.251 5.749 0.19 2.083-0.478 3.824-0.259 5.925 0.363 3.474 0.098 7.949 3.826 9.451 1.837 0.74 2.779 1.453 4.188 2.938 0.91 1.03 2.38 2.99 4.02 2.39z" fill="#0D0D0D"/>
	<path stroke="#000" stroke-width=".25" d="m111.92 204.91c1.665 4.053-2.176 3.332-3.017 6.334-0.422 1.507 0.17 2.24-0.732 3.584-0.904 1.347-1.016 1.407-1.326 3.082-0.395 2.119-2.744 5.864-4.542 6.948 0.952-1.542 1.007-3.527 1.358-5.281 0.426-2.134 0.793-4.171 0.926-6.333 0.128-2.104 0.425-4.199 0.74-6.334 0.213-1.436 0.041-5.545 1.666-5.923 1.56-0.37 4.41 2.68 4.92 3.92z" fill="#0D0D0D"/>
	<path stroke="#000" stroke-width=".25" d="m109.67 329.16s16-1 17.5 1 2 2.5 3 2.5 7.5-1.5 7.5-1.5l-1.614-12.184-9.386 1.184-17.5-6-0.5 14.5" fill="#B3B3B3"/>
	<path stroke="#000" stroke-width=".25" d="m110.17 307.66s4 1 7 2.5 13 5 15 6.5 4.771 1.133 3.886 2.316-0.886 2.184-4.386 3.184-21.5-6-21.5-6v-8.5z" fill="#E6E6E6"/>
	<path stroke="#000" stroke-width=".25" d="m129.29 330.78l0.75-1-0.5-5.75s-0.25-1.25 1.5-1.5 4.5-1.5 4.5-1.5l1 6.25-7.25 4.75v-1.25z" fill="#fff"/>
	<polygon stroke="#000" stroke-width=".25" points="131.29 325.03 134.79 323.53 134.79 327.03 131.29 329.03" fill="#E6E6E6"/>
	<polygon stroke="#000" stroke-width=".25" points="132.29 324.53 132.54 326.78 134.79 325.78 134.79 323.53"/>
	<path id="segway_side" d="m7.688 139.63c1.363-2.329 3.181-4.308 6.098-5.716 3.586-1.732 11.579-5.062 15.633-4.836 2.758 0.153 5.527 0.24 8.279 0.46 4.042 0.322 5.248 3.202 6.916 6.391 1.819 3.479 3.89 5.868 6.569 8.652 3.003 3.119 5.983 7.045 7.554 11.109 1.828 4.729 0.527 9.938 1.979 14.758 1.166 3.87 4.113 7.079 4.092 11.308-0.015 3.008-1.293 6.577-2.484 9.309-2.748 6.303-7.86 10.204-14.905 10.014-3.457-0.095-6.509-1.784-10-1.349-6.657 0.83-10.451 4.617-15.883-1.397-3.505-3.882-5.213-9.012-7.932-13.406-2.5-4.04-5.211-8.747-6.87-13.197-1.42-3.812-2.948-7.361-4.136-11.238-0.727-2.373-2.996-5.432-2.36-7.931 0.609-2.391 3.456-3.455 4.596-5.529 1.222-2.21 1.498-5.07 2.854-7.38z" stroke="#000" stroke-width=".25" fill="#333"/>
	<path stroke="#000" stroke-width=".25" d="m1.918 151.91c0.214-0.119 0.526-6.549 0.341-7.341-0.229-0.982-1.071-1.555-1.122-2.628-0.052-1.087 0.73-2.301 1.075-3.319 2.053-6.058 2.909-12.154 5.223-18.186 0.815-2.125 1.426-4.236 3.061-5.801 2.032-1.944 3.876-3.977 5.673-6.142 1.19-1.435 2.35-2.167 3.74-3.333 1.185-0.994 1.924-2.219 2.993-3.316 1.979-2.029 5.184-3.971 7.683-5.193 1.583-0.775 3.331-1.494 5-2.166 2.399-0.965 5.919-1.253 8.531-1.47 2.697-0.224 5.428 0.063 8.136-0.105 10.667-0.667-13.667 8-17 13s0.667 14.667 0.667 14.667l-1.667 13.333c-0.001 0-32.332 17.99-32.334 18z" fill="#B3B3B3"/>
	<polygon stroke="#000" stroke-width=".25" points="14.751 141.74 35.418 135.74 42.751 155.74 17.418 150.41" fill="#fff"/>
	<path stroke="#000" stroke-width=".25" d="m12.957 148.31c3.485-5.042 19.447-0.617 23.058 2.14 4.965 3.792 11.526 9.034 13.404 15.29 2 6.667 4 13.333 4.667 17.333s3.333 14.001-0.667 16.667-10 0.667-14 0-15.333-26.001-18.667-31.334c-2.284-3.654-4.135-7.629-5.802-11.597-1.6-3.81-3.128-6.85-1.993-8.5z" fill="#1A1A1A"/>
	<path stroke="#414142" stroke-width=".25" d="m52.166 180.79c-3.936 7.453 0.532 21.763 2.586 28.954 2.667 9.333 16.667 52 15.333 57.333s-5.333 20.667-7.333 24 7.333 2 7.333 2 3.333 1.999 6-10.667 0-12-2-18-2-27.333-2-27.333c-1.864-11.524-3.729-23.049-5.593-34.573-0.691-4.271-2.695-8.738-1.045-12.866 1.885-4.717 1.682-7.929-2.831-10.689-3.56-2.177-7.554-2.674-10.005 1.083-0.159 0.25-0.308 0.5-0.445 0.77z"/>
	<path stroke="#000" stroke-width=".25" d="m12.91 134.93c1.639 0.648 3.081-1.151 2.616-2.633-0.937-0.454-1.767-1.619-2.675-1.992-1.143-0.468-2.958 0.206-2.792 1.313-0.005-0.034 1.339 1.386 1.462 1.558 0.46 0.64 0.563 1.42 1.389 1.75z" fill="#FFE0BF"/>
	<path stroke="#000" stroke-width=".25" d="m14.949 117.16c-0.035-0.023-0.071-0.047-0.109-0.071-2.168-1.377-5.218-0.232-7.462 0.351-3.154 0.82-6.025 3.483-6.806 6.664-1.062 4.325 2.933 2.217 4.437 5.045 1.358 2.554 0.078 3.927 3.427 4.294 2.061 0.227 3.645 1.317 4.149-1.203 0.333-1.666-1.332-2.666-1.333-2.667-0.229-0.138-0.062-2.986 0-3.374 0.387-2.445 2.212-3.689 3.788-5.346 1.248-1.3 1.627-2.53-0.091-3.68z" fill="#FFE0BF"/>
	<path stroke="#000" stroke-width=".25" d="m5.588 124.57c0.959-0.03 1.572-0.016 2.338 0.575 0.765 0.59 0.676 1.678 1.942 1.472 0.243 1.327 0.854 2.449-0.349 3.543-1.805 1.641-5.179 1.805-6.923-0.024-2.556-2.67-0.295-5.45 2.992-5.56z"/>
	<path stroke="#000" stroke-width=".25" d="m126.06 165.7c-0.363 0.214-0.563 0.583-0.686 1.38-0.361 2.321 0.463 4.661 0.677 6.955 0.183 1.961 0.896 4.395 0.597 6.349-0.267 1.74-2.004 3.806-3.047 5.063-1.079 1.303-4.336 3.137-4.25 5.063 0.05 1.132 1.992 1.914 2.877 2.602 0.841 0.654 1.916 1.105 2.477 2.013 1.404-4.381 1.627-9.342 4.049-13.38 0.852-1.42 0.498-3.253 0.948-4.8 0.513-1.759 0.7-3.461 0.815-5.338 0.148-2.394 0.236-4.797 0.236-7.196-1.092 0.313-2.18 0.658-3.291 0.896-0.65 0.14-1.09 0.21-1.41 0.4z" fill="#333"/>
	<path stroke="#000" stroke-width=".25" d="m71.837 166.34c-0.72 0.506-1.343 1.182-1.816 2.111-0.815 1.602-1.619 3.21-2.404 4.827-1.534 3.162-3.23 6.406-4.199 9.799-1.333 4.667-2 12-2 13.333 0 3.074-0.611 4.993 0.569 8.082 0.542 1.42 0.764 3.029 0.764 4.586 0 2.173 0.747 4.532 1.147 6.653 0.621 3.292 1.317 6.263 1.407 9.602 0.092 3.421 0.306 6.838 0.629 10.244 0.529 5.571 1.518 11.231 2.615 16.703 0.649 3.238 1.208 5.548 3.986 7.822 0.961 0.787 1.902 1.121 2.319 2.427 0.826 2.586-0.827 5.444-1.437 7.881l-4 16s-2 4.666 0 5.333 18.667 10.001 20 11.334c2.96 2.958 6.017 5.823 9.03 8.727 1.807 1.74 4.322 3.479 5.839 5.435 1.195 1.541 1.853 5.586 4.641 3.429 1.522-1.178 2.788-4.966 2.998-6.749 0.327-2.774-1.198-5.129-1.008-8.008 0.185-2.792-0.125-4.591-0.667-7.341-1.012-5.146-0.361-10.562-0.333-15.992 0.013-2.581-0.77-5.162-1.008-7.659-0.269-2.822-0.143-5.344-0.659-8.016-0.447-2.317-0.924-4.703-0.967-7.073-0.052-2.858 0.73-5.863-0.773-8.511-0.865-1.521-2.016-1.361-1.943-3.408 0.221-6.263 1.018-12.409 1.018-18.666 0-3.175 0.211-6.269 0.336-9.418 0.042-1.047-0.209-2.039-0.146-3.085 0.189-3.1 0.813-6.078 1.325-9.129 0.205-1.227 0.625-2.288 0.958-3.476 0.474-1.689 0.153-3.429 0.604-5.104 0.459-1.704 1.461-3.229 2.459-4.661 0.48-0.688 1.363-1.468 1.441-2.304 0.091-0.965-0.898-1.407-0.336-2.489 0.48-0.922 1.872-1.45 2.625-2.084 1.57-1.322 2.367-3.084 3.648-4.674 4.768-5.916 5.369-13.14 4.25-20.41l-3.333-6c-4.942 0.961-9.885 1.922-14.827 2.883-6.23 1.211-12.461 2.423-18.691 3.634-2.652 0.516-5.303 1.031-7.954 1.547-2.107 0.42-4.38 0.67-6.098 1.88z" fill="#1A1A1A"/>
	<path stroke="#000" stroke-width=".25" d="m80.751 171.07c0.092 3.787 0.185 7.573 0.277 11.36 0.072 2.942 0.144 5.884 0.215 8.826 0.05 2.06-0.702 4.591 0.387 6.493 1.231 2.152 4.425 2.479 6.468 3.467 2.701 1.306 5.576 2.2 8.443 3.075 1.916 0.585 2.871-0.975 4.093-2.081 1.374-1.245 3.099-2.127 4.688-3.074 5.234-3.12 5.844-11.413 7.159-16.755 0.75-3.047 1.492-6.098 2.168-9.163 0.349-1.579 0.999-3.444 0.905-5.083-0.14-2.42-34.809 2.91-34.809 2.91z" fill="#333"/>
	<path stroke="#000" stroke-width=".25" d="m123.58 244.59c1.674-0.277 3.229-1.177 4.883-1.374-1.073 1.167-3.081 2.197-4.533 2.374-1.817 0.221-4.633 1.123-6.26 0.062 1.95-0.42 3.95-0.73 5.91-1.06z" fill="#0D0D0D"/>
	<path stroke="#000" stroke-width=".25" d="m128.88 250.56c-0.499 1.961-6.789 0.854-8.115 0.501 0.93-0.96 8.34-1.36 8.12-0.5z" fill="#0D0D0D"/>
	<path stroke="#000" stroke-width=".25" d="m102.57 296.91c0.788-3.502 1.553-7.314 3.052-10.549-2.389 2.313-4.216 5.296-5.783 8.133-1.07 1.938-4.587 6.099-3.859 8.357 0.104 0.322 2.699 1.446 3.154 1.937 0.803 0.866 1.186 1.891 1.572 2.974 0.244-1.387 0.008-2.91 0.202-4.341 0.31-2.23 1.18-4.33 1.67-6.51z" fill="#0D0D0D"/>
	<path stroke="#000" stroke-width=".25" d="m110.67 344.16s0.75 2.5-2.25 8.5-3.5 11-3.5 11 32-14 35.5-18 9.25-17.5 9-20-0.25-2.5-0.25-2.5-8.25 7.5-13.25 9-25 10.5-25 10.5l-0.25 1.5z" fill="#B3B3B3"/>
	<path stroke="#000" stroke-width=".25" d="m115.53 346.62c-0.257-0.487-0.068-1.093 0.419-1.35l28.501-15.001c0.488-0.256 1.093-0.069 1.35 0.421 0.258 0.487 0.069 1.092-0.418 1.35l-28.501 15.001c-0.148 0.078-0.308 0.115-0.464 0.115-0.36 0-0.71-0.2-0.89-0.54z" fill="#BF1E2D"/>
	<path stroke="#000" stroke-width=".5" d="m27.918 309.66s9.5-24.5 34.5-22.5 42.5 15 47.5 32.5 2 21.5 2 21.5-13.5-30.5-29-39.5-36.5-10-42.5-5-12.502 13-12.502 13z" fill="#333"/>
	<path stroke="#000" stroke-width=".25" d="m27.918 309.66s12-19.5 22-19.5 25.5-0.5 36.5 8 23.5 22.5 25 31 1.5 11.5 1.5 11.5c-2.019-1.978-4.056-3.936-6.097-5.889-8.485-8.127-17.077-16.153-25.911-23.901-7.593-6.66-19.765-20.522-31.204-14.539-3.341 1.748-6.619 3.705-9.845 5.662-4.041 2.45-8.034 5-11.942 7.67z" fill="#4D4D4D"/>
	<path stroke="#000" stroke-width=".25" d="m56.918 292.16s13 0.5 20 3.5 23 12.5 26.5 20 8.5 16.5 8.5 25.5-3 20.5-9 27c-3.544 3.839-5.188 7.604-9.876 10.125-1.466 0.788-2.373 1.822-3.735 2.764-2.612 1.807-15.366 7.298-17.508 2.3-1.447-3.378 4.506-8.574 6.49-10.665 3.746-3.945 8.241-4.641 9.655-10.488 1.059-4.378 0.658-8.671 0.962-13.117 0.47-6.876 2.7-13.766 1.899-20.752-0.631-5.498-3.1-11.874-5.553-16.604-4.398-8.484-14.071-10.199-22.644-11.605-6.408-1.051-18.558-3.603-23.691 2.044-5 5.5-12 8-12 8 2.502-2.949 5.181-5.772 7.963-8.458 2.185-2.109 4.453-4.194 6.951-5.933 4.246-2.96 10.133-2.79 15.085-3.61z" fill="#B3B3B3"/>
	<path stroke="#000" stroke-width=".25" d="m27.918 309.66c1.303-3.907 8.24-8.273 11.466-10.212 6.464-3.885 15.711-5.478 23.169-3.924 0.507 0.106 0.753 1.024 1.352 1.171 0.868 0.214 1.118-0.672 2-0.545 1.671 0.24 2.175 0.678 2.6 2.423 1.833 0.229 4.516-0.464 3.987 2.398 2.552-1.188 5.525-0.855 5.512 2.602 1.15 0.644 2.529 0.254 3.562 0.94 0.68 0.451 0.058 1.299 0.706 1.793 0.49 0.374 1.365 0.071 1.673 0.328 1.622 1.351 2.416 3.248 4.085 4.914 0.894 0.893 1.167 1.689 1.876 2.624 0.658 0.868 1.788 1.121 2.413 2.087 0.88 1.36 0.196 2.432 1.6 3.926 2.479 2.639 3.464 4.347 4.5 7.975 4 14 6 26 0 36-2.524 4.208-4.825 8.706-8.17 12.345-3.068 3.338-7.537 4.959-11.411 7.188-2.889 1.662-5.669 1.117-8.835 1.521-5.076 0.647-10.247 0.938-15.083-1.054-6.41-2.639-12.537-6.5-17.717-11.1-2.661-2.363-5.205-5.026-6.976-8.14-3.544-6.232-5.092-13.166-6.809-20.127-0.823-3.339-1.949-6.833-2.112-10.288-0.233-4.934 1.576-10.966 3.276-15.524 1.153-3.09 2.293-6.19 3.336-9.32z" fill="#333"/>
	<path stroke="#000" stroke-width=".25" d="m55.922 301.81c6.655-0.258 14.293 2.34 20.159 5.087 7.199 3.372 13.659 8.843 15.837 16.762 5.5 20 6 36-4.5 46s-26 12-35 8-31.5-20-25-48.5c3.167-13.885 12.467-25.999 27.479-27.285 0.338-0.04 0.681-0.06 1.025-0.07z"/>
	<path stroke="#000" stroke-width=".25" d="m57.918 305.66s26 3.5 31 21.5 2.5 35-4 40-21 13-38 2-18-36-15.5-42 7.5-21.5 26.5-21.5z" fill="#808080"/>
	<path stroke="#000" stroke-width=".25" d="m65.418 325.66s-15.5-4.5-18 12c-1.204 7.945 4.398 18.5 13.5 18.5 8 0 14.5-2.5 15-7.5s-10.5-23-10.5-23z" fill="#1A1A1A"/>
	<path stroke="#000" stroke-width=".25" d="m63.418 325.16c-4.146 1.146-9.147 3.194-11.486 7.043-4.751 7.824 1.998 18.606 9.751 20.764 4.096 1.139 9.352 2.405 12.448-1.264 4.001-4.741 4.226-12.217 2.397-17.848-0.937-2.884-2.37-4.503-5.084-6.036-1.721-0.97-5.955-3.22-8.026-2.65z"/>
	<path stroke="#000" stroke-width=".25" d="m67.418 340.16c0 3.929-4.671 6.467-7.817 4.022-2.424-1.884-2.159-7.327 0.604-8.784 3.215-1.7 7.213 1.51 7.213 4.76z" fill="#ccc"/>
	<circle r="1.122" cy="340.03" stroke="#000" cx="62.681" stroke-width=".25" fill="#F2F2F2"/>
	<path stroke="#000" stroke-width=".25" d="m60.417 318.66v-10c0-0.554 0.447-1 1-1s1.001 0.446 1.001 1v10c0 0.553-0.448 1-1.001 1s-1-0.45-1-1z" fill="#fff"/>
	<path stroke="#000" stroke-width=".25" d="m72.792 326.44c-0.43-0.344-0.501-0.973-0.157-1.404l6.001-7.5c0.346-0.431 0.975-0.501 1.405-0.156 0.433 0.346 0.501 0.975 0.157 1.407l-5.999 7.499c-0.198 0.246-0.489 0.375-0.782 0.375-0.219 0-0.44-0.08-0.625-0.22z" fill="#fff"/>
	<path stroke="#000" stroke-width=".25" d="m79.423 339.26c-0.059-0.551 0.341-1.044 0.889-1.101l9.5-0.999c0.55-0.059 1.042 0.338 1.101 0.889 0.057 0.55-0.342 1.041-0.891 1.1l-9.501 1c-0.035 0.003-0.07 0.005-0.104 0.005-0.504 0-0.941-0.39-0.994-0.9z" fill="#fff"/>
	<path stroke="#000" stroke-width=".25" d="m85.804 360.44l-9-7c-0.436-0.34-0.516-0.969-0.176-1.402 0.339-0.436 0.966-0.516 1.402-0.176l9 7c0.437 0.339 0.516 0.968 0.177 1.402-0.198 0.255-0.491 0.388-0.79 0.388-0.214 0.01-0.43-0.06-0.613-0.21z" fill="#fff"/>
	<path stroke="#000" stroke-width=".25" d="m69.964 371.46l-3.5-11c-0.168-0.525 0.124-1.088 0.651-1.256 0.525-0.168 1.087 0.124 1.255 0.648l3.5 11.001c0.168 0.526-0.124 1.09-0.649 1.257-0.101 0.032-0.203 0.048-0.304 0.048-0.424 0-0.817-0.28-0.953-0.7z" fill="#fff"/>
	<path stroke="#000" stroke-width=".25" d="m50.575 370.1c-0.518-0.188-0.787-0.764-0.598-1.282l4-11c0.189-0.519 0.762-0.787 1.282-0.598 0.519 0.188 0.787 0.762 0.598 1.28l-4 11c-0.148 0.407-0.532 0.659-0.942 0.659-0.112 0-0.227-0.02-0.34-0.06z" fill="#fff"/>
	<path stroke="#000" stroke-width=".25" d="m35.534 353.12c-0.258-0.488-0.071-1.094 0.417-1.352l8.498-4.501c0.49-0.258 1.094-0.071 1.354 0.416 0.257 0.488 0.071 1.094-0.417 1.352l-8.5 4.499c-0.149 0.08-0.31 0.117-0.468 0.117-0.359 0-0.704-0.2-0.884-0.54z" fill="#fff"/>
	<path stroke="#000" stroke-width=".25" d="m43.129 335.11l-9.999-2.999c-0.529-0.158-0.83-0.715-0.671-1.245 0.159-0.527 0.717-0.828 1.246-0.669l9.999 2.999c0.528 0.159 0.83 0.717 0.671 1.246-0.13 0.432-0.526 0.712-0.956 0.712-0.096 0.01-0.193-0.01-0.29-0.04z" fill="#fff"/>
	<path stroke="#000" stroke-width=".25" d="m48.578 323.2l-6.499-9.999c-0.301-0.464-0.169-1.084 0.294-1.384 0.463-0.301 1.082-0.17 1.384 0.292l6.5 10.001c0.301 0.464 0.169 1.081-0.292 1.384-0.169 0.109-0.358 0.162-0.545 0.162-0.329 0.01-0.649-0.15-0.842-0.45z" fill="#fff"/>
	<path stroke="#000" stroke-width=".25" d="m81.657 63.227c-0.737 2.545-1.162 5.18-1.447 7.178-0.356 2.498-0.831 4.984-1.246 7.473-0.507 3.041-0.663 6.375-1.358 9.343-0.707 3.015-2.976 5.221-4.42 7.961-1.5 2.844-2.999 5.688-4.499 8.531-1.923 3.648-3.847 7.295-5.77 10.943-1.886 3.458-3.771 6.915-5.658 10.372-3.054 5.598-3.514 10.056-3.385 16.388 0.113 5.605 0.575 9.96 2.809 15.109 2.114 4.874 4.432 9.96 5.31 15.055 4.183-0.307 2.891 2.743 4.514 5.038 1.741-0.588 3.342-1.652 5.053-2.349 2.128-0.866 4.39-0.923 6.628-1.271 2.495-0.389 4.63-1.438 7.042-2.046 3.344-0.842 6.066-0.246 9.255-1.54 2.757-1.119 5.812-1.18 8.696-1.769 3.238-0.662 6.331-0.987 9.848-0.987 6.622 0 17.629 1.024 16.402-8.488-0.198-1.533-0.053-4.065-0.49-5.538-0.49-1.648-1.81-2.593-2.036-4.474-0.238-1.984-0.755-3.574-1-5.5-0.321-2.525 0.294-4.234-1.307-6.431-1.757-2.41 1.015-4.668 1.44-6.945 0.443-2.369-0.719-4.539-0.384-7.031 0.299-2.225 0.606-4.455 1.114-6.637 0.403-1.733-0.387-3.114-0.233-4.837 0.137-1.532 0.979-2.89 1.073-4.442 0.079-1.297-0.469-2.474-0.302-3.787 0.229-1.8 1.346-3.406 1.56-5.171 0.203-1.671-0.43-3.38-0.09-5.094 0.416-2.086 0.258-3.603 0.115-5.625-0.138-1.965 1.418-3.16 1.522-5 0.187-3.297-0.201-6.812-0.998-10-0.955-1.911-1.905-3.823-2.866-5.731-1.639-3.258-4.484-5.706-7.338-7.876-3.836-2.917-6.85-4.963-9.796-8.892l-1.5-3-2.5-1.5-14.5 6.5-5.5 5c-1.748 1.62-2.928 4.294-3.733 7.076z" fill="#333"/>
	<path d="m98.531 90.657c0.013-0.004 8.5-0.751 12.731-1.748 4.236-0.995 6.486-2.25 9.279-2.252 2.748 0 8.342-0.126 8.35-0.126l0.004 0.25s-5.601 0.124-8.354 0.124c-2.707-0.002-4.955 1.241-9.22 2.249-4.269 1.003-12.767 1.751-12.769 1.751v0.002l-0.02-0.25z"/>
	<path d="m93.038 117.9l0.01-0.249c0.006 0 2.553 0.11 5.365 0.11 1.404 0 2.875-0.029 4.12-0.11 3.751-0.25 13.005-0.751 16.986-1.498 3.296-0.619 6.067-0.674 6.955-0.674 0.193 0 0.298 0.002 0.3 0.002l-0.009 0.25s-0.102-0.004-0.291-0.004c-0.878 0-3.636 0.055-6.908 0.67-4.019 0.753-13.266 1.251-17.015 1.502-1.256 0.083-2.73 0.11-4.139 0.112-2.826 0.01-5.383-0.11-5.383-0.11z"/>
	<path d="m91.551 131.66h0.002 0.001-0.003zm-0.019-0.25c0.002 0 7.002-0.5 11.761-0.5 4.739 0 7.754-0.255 8.46-0.496 0.156-0.051 0.283-0.078 0.405-0.076 0.485 0.006 0.78 0.318 3.385 0.32 1.782 0 2.313 0.224 2.903 0.222 0.489 0 1.074-0.147 2.551-0.713 3.24-1.246 5.224-2.488 5.23-2.49l0.132 0.212c-0.007 0.002-2.013 1.256-5.272 2.51-1.479 0.566-2.092 0.73-2.641 0.73-0.658 0-1.14-0.223-2.903-0.223-1.293 0-2.048-0.082-2.524-0.161-0.482-0.082-0.679-0.163-0.86-0.159-0.09 0-0.184 0.016-0.326 0.065-0.795 0.261-3.778 0.504-8.539 0.506-4.7 0-11.604 0.491-11.74 0.5l-0.018-0.24z"/>
	<path d="m95.253 151.4c-0.016-0.002-3.078-1.034-3.336-4.86-0.189-2.847-0.668-9.157-0.668-13.132 0-1.259 0.047-2.281 0.17-2.9 0.5-2.487 1.494-14.225 2.254-16.515 0.215-0.638 0.284-1.623 0.284-2.716 0-1.803-0.188-3.908-0.188-5.336 0.003-0.644 0.035-1.146 0.158-1.455l0.037-0.092 0.1 0.017c0.006-0.002 3.832 0.638 7.274 0.638 0.86 0 1.694-0.041 2.438-0.139 3.754-0.5 4.238-0.499 7.234-1.247 2.98-0.744 4.009-1.504 7.283-1.504 3.232 0 9.224-0.748 9.234-0.748l0.03 0.248c-0.004 0-6.001 0.75-9.265 0.75-3.228 0-4.2 0.74-7.221 1.496-3.005 0.752-3.518 0.754-7.265 1.253-0.759 0.1-1.603 0.141-2.471 0.141-3.138 0-6.579-0.523-7.212-0.625-0.074 0.259-0.109 0.711-0.107 1.269 0 1.41 0.188 3.518 0.188 5.336 0 1.106-0.064 2.104-0.296 2.794-0.739 2.212-1.743 13.974-2.246 16.486-0.116 0.58-0.165 1.6-0.165 2.851 0 3.957 0.478 10.266 0.668 13.116 0.227 3.432 2.787 4.497 3.129 4.625 0.376-0.123 3.242-1.024 6.982-1.493 3.998-0.497 13.761-1.502 16.229-2.244 2.493-0.748 7.486-2.496 7.494-2.498l0.082 0.235s-5 1.75-7.506 2.501c-2.529 0.758-12.267 1.754-16.269 2.254-3.987 0.499-6.97 1.492-6.976 1.494l-0.041 0.012-0.02-0.01z"/>
	<path d="m93.933 104.59l0.221-0.113-0.049 0.024v-0.057c0-0.008 0.004 0.004 0.049-0.041 0.047-0.043 0.118-0.132 0.208-0.285 0.183-0.307 0.447-0.875 0.813-1.878 0.997-2.734 2.236-10.208 2.749-11.244 0.015-0.004 4.976-16.288 14.599-17.836 4.453-0.704 8.249-1.133 11.163-1.133 3.302 0.006 5.493 0.533 6.22 1.951l-0.224 0.112c-0.606-1.245-2.71-1.819-5.996-1.813-2.892 0-6.679 0.427-11.124 1.129-4.682 0.735-8.293 5.138-10.723 9.376-2.43 4.236-3.675 8.279-3.686 8.308-0.479 0.944-1.739 8.473-2.744 11.236-0.758 2.019-1.018 2.315-1.305 2.366-0.117-0.01-0.167-0.1-0.172-0.11zm-0.001 0c0.001 0 0.001 0 0 0l0.001 0.001h-0.001z"/>
	<path stroke="#000" stroke-width=".25" d="m105.54 140.03s11-5 13.5-6 5.25-2 5.25-2l0.087 1.111s-1.087 0.389-4.087 1.389-13.75 4.75-14.75 5.5z"/>
	<path stroke="#000" stroke-width=".25" d="m92.293 148.03s10.5-3.5 14.5-4.25 5.25 0 7.75 0 4.25-1 4.25-1-11.25 0-13.25 0.25-13.75-0.5-13.75-0.5 0.003 5 0.503 5.5z"/>
	<path stroke="#000" stroke-width=".25" d="m108.79 145.03s0.25 1.5 2.75 1.25 4.5-0.25 5.5-0.5 1.5-0.5 3-1 2-0.5 3-0.5 2.75-2.25 2.75-2.25-0.25 1-2.5 1.25-3.5 0.75-6.25 1.25-7.5 0-8.25 0.5z"/>
	<path stroke="#000" stroke-width=".25" d="m110.29 142.28s3.25-2.5 6.25-3.5 7.5-2 8.25-1.75 0.5 1.25 0.5 1.25-0.75-1-4 0-9.25 1.75-11 4z"/>
	<path stroke="#000" stroke-width=".25" d="m93.999 152.44c1.111 1.54 1.026 3.365 3.473 3.085-1.175 0.134-2.891 0.768-2.02 2.054 0.701 1.034 2.488 0.844 3.586 0.953-0.471-0.047-1.81 1.21-2.246 1.5 0.956 0.401 0.712 1.587 1.457 2.237 0.754 0.657 2.018 0.751 2.969 0.763-1.977-0.025-22.163 2.043-21.675 3.75 0.5 1.75 7.75 1.25 7.75 1.25l10.25-0.25-30.75 8.25s-2.25-4.75-4.25-4.75-8.25-22.5-8.25-26.75-1-14 5-20c5.277-5.277 11.525-10.161 16.303-16.018 1.778-2.181 3.454-4.505 5.196-6.731 0.625-0.799 0.707-2.125 1.062-3.051 0.596-1.556 1.488-2.958 1.437-4.699-0.073-2.482-3.159-1.499-2.024-0.051-1.852 0.741-1.134-2.566-0.924-3.369 0.495-1.88 2.607-3.257 4.343-3.848 1.124-0.383 1.622-0.243 2.24 0.667 0.457 0.673 1.32 2.027 1.486 2.843 0.375 1.856-0.51 3.726-1.166 5.394-0.721 1.835-0.384 3.884-0.167 5.822 0.013 0.116 1.005 0.244 1.128 0.26-0.441-0.865 0.458-1.227 0.857-1.845 0.65-1.006 0.73-2.198 1.25-3.243 0.396-0.795 0.984-1.497 1.402-2.304 1.11-2.15 2.185-4.34 3.575-6.327 2.063-2.949 3.82-5.423 7.25-6.907-1.955 2.34-3.71 4.807-5.597 7.203-0.253 0.321-3.641 4.831-2.903 4.954 1.5 0.25 7.5-7 7.5-7s-5 5.25-3.25 5.5 5.25-2 5.25-2-8 6.25-6.25 7.25 9.25-3.5 9.25-3.5c-2.663 1.496-5.298 3.078-7.815 4.808-1.246 0.856-3.497 2.286-2.726 4.143 0.784 1.887 3.882 1.316 5.46 1.293-1.709 0.697-3.675 1.297-5.412 2.068-0.615 0.273-2.101 0.695-1.705 1.637 0.913 2.179 7.191-0.346 8.873-0.21-1.58 1.374-3.672 2.147-5.414 3.298-1.989 1.314-3.971 2.761-6.162 3.631-1.777 0.706-3.498 1.7-4.909 3.007-2.37 2.194 0.421 2.209 2.153 2.228 2.667 0.03 5.441-0.703 8.08-0.346-1.127 0.39-2.496 0.94-3.223 1.935-0.393 0.539 3.521 0.195 3.74 0.156 1.622-0.286 3.309-0.346 4.893-0.65 1.926-0.37 3.57-1.624 5.592-1.71-1.395 1.657-4.565 2.434-6.426 3.408-1.557 0.815-3.123 1.502-4.775 2.067-0.713 0.245-4.338 1.175-4.497 1.981-0.19 0.973 1.299 1.055 1.837 1.262-1.145-0.018-2.267 0.034-3.295-0.25-1.162-0.321-1.674-0.693-2.7 0.051-2.284 1.655 0.309 2.756 0.973 4.332 0.562 1.332-0.094 3.012 0.438 4.253 0.506 1.18 1.367 0.756 2.494 0.909-1.42 1.644 0.619 2.214 1.938 2.187-0.852 0.417-2.475 0.417-3.098 1.327-1.557 2.273 3.94 2.217 4.986 2.302 1.422 0.116 4.351 1.083 5.7 0.634-2.588 0.878-5.162 1.806-7.693 2.838-1.715 0.699-3.384 1.408-4.993 2.327-0.097 0.055-3.112 2.186-1.888 2.411 1.828 0.33 5.775-0.16 7.033 1.58z" fill="#0D0D0D"/>
	<path stroke="#000" stroke-width=".25" d="m9.955 121.04c0.32-0.865 0.841-1.683 1.62-2.419 2.056-1.944 5.953-5.054 9.009-5.054l4.667-0.333s8.333-4.333 9.001-4.333c2.688-0.007 4.631-1.09 5.877-3.274 0.858-1.503 1.852-3.87 3.121-5.06 2.046-1.917 4.741-3.639 6.512-5.728 1.329-1.567 2.417-3.557 3.577-5.262 1.837-2.701 4.086-5.429 5.577-8.343 0 0 7.333-14.333 11.667-15.333s7-2 7-2 3.667-2.667 4.333-2.667c3.336-0.001 5.265-4.342 9.333-3.104 3.859 1.174 5.615 6.224 5.771 9.761 0.386 8.764-6.935 16.604-10.905 23.805-4.141 7.512-8.408 15.187-14.413 21.394-4.299 4.443-9.987 12.063-15.452 14.812-4.809 2.404-11.022 3.792-16.349 3.934-2.199 0.059-4.477 0.128-6.651-0.267-3.667-0.667-9.667 0-11.667 0.667s-5.667 1.333-5.667 1.333-1.333-2-2.333-1.667-2.333-2.333-2.333-2.333c-1.292-2.58-2.305-5.79-1.295-8.53z" fill="#0D0D0D"/>
	<path stroke="#000" stroke-width=".25" d="m70.251 16.479c-0.441 0.006-0.863 0.058-1.245 0.182-0.418 0.136-0.608 0.236-0.963 0.536-0.721 0.61-1.48 1.182-2.166 1.833-0.56 0.533-1.37 1.198-1.551 1.95-0.23 0.959 0.331 1.95 0.346 2.838 0.032 1.815-1.199 3.793-2.128 5.346-1.101 1.838-4.978 3.711-3.996 6.327 0.358 0.954 1.473 1.145 2.241 1.747 1.113 0.872 0.337 1.946 0.204 3.076-0.09 0.765-0.101 1.676 0.467 2.215 0.557 0.529 2.299 0.259 2.028 1.293-0.177 0.676-1.437 0.813-1.617 1.501-0.299 1.144 0.05 2.401 0.095 3.554 0.078 2.02 1.468 4.438 3.406 5.236 0.994 0.409 2.077 0.287 3.003 0.667 0.861 0.354 1.562 0.638 2.458 0.838 1.8 0.403 3.38 1.561 5.164 2.037 1.076 0.287 2 0.5 3.17 0.5 0.876 0 2.421 0.08 3.176-0.32 0.937-0.496 1.863-1.777 2.63-2.501 1.326-1.252 2.651-2.504 3.977-3.756 1.768-1.669 3.534-3.337 5.301-5.006l8.667-1.667 5.333-1.667v-7.667s-6.332-16.999-6.333-17c-0.079-0.211-3.06-0.179-3.31-0.194-2.67-0.157-5.34-0.316-8.01-0.477-3.936-0.236-7.871-0.476-11.805-0.727-1.624-0.104-3.248-0.208-4.871-0.32-1.104-0.073-2.463-0.391-3.673-0.374z" fill="#FFE0BF"/>
	<path stroke="#000" stroke-width=".25" d="m75.585 62.24c-0.248-0.009 2.443-2.41 2.478-2.441 1.272-1.154 2.315-2.645 3.521-3.891 1.584-1.638 2.733-3.624 4.159-5.389 1.908-2.362 7.328-6.612 10.508-6.612 0.667 0 6.667-1.667 6.667-1.667l5-0.667v4.583s-3.333-0.25-8 2.083-11.666 6-12.333 6.667-6.667 7-6.667 7-3 0.334-5.335 0.334z" fill="#29292A"/>
	<path stroke="#000" stroke-width=".25" d="m75.585 20.906c0.735 2.392 4.209 12.462 0.108 13.341 1.206-0.26 2.32 0.307 2.272 1.608 2.118 0.504 2.289-2.635 2.286-3.95-0.002-0.903-0.318-2.507-0.008-3.341 0.789-2.118 4.488-2.581 6.341-2.993l1.333 5.667c-0.079 0.708-0.321 1.558-0.253 2.26 0.096 0.99 0.728 1.745 0.919 2.74 0.089 0.462-0.208 1.18 0.061 1.591 0.444 0.68 1.226 0.403 1.632 0.732 1.106 0.895 0.374 1.345 0.95 2.35 0.604 1.055 3.306 1.902 4.45 2.233 1.094 0.317 1.703 0.07 2.906 0.077 1.888 0.01 3.949 0.856 5.427-0.722 0.589-0.629 2.003-3.501 1.241-4.262l-13-13-14-6.333-2.665 2.002z" fill="#ccc"/>
	<path stroke="#000" stroke-width=".25" d="m63.297 41.031c1.091 0.808 0.795 1.629 2.538 1.625 1.485-0.003 2.335 0.538 3.67 1.005 1.441 0.504 1.63 1.377 1.663 2.829 0.029 1.334 0.079 2.936 0.621 4.175 0.707 1.616 1.673 1.217 3.213 1.362 1.221 0.115 2.707 0.429 3.746 1.12 0.936 0.623 0.976 1.649 1.63 2.476 0.283 0.357 0.966 0.583 0.856 1.118-0.083 0.405-1.089 0.888-1.435 1.032-1.167 0.485-2.522 0.256-3.727 0.054-1.065-0.178-1.789-0.962-2.69-1.55-0.531-0.346-0.911-0.417-1.546-0.454-1.013-0.06-1.008-0.359-1.871-0.796-0.532-0.269-1.308-0.241-1.833-0.334-0.661-0.117-1.065-0.251-1.672-0.496-1.645-0.664-3.824-1.428-4.357-3.31-0.321-1.135-1.329-3.688-0.559-4.689 0.727-0.946 1.778 0.05 2.499-0.834 0.724-0.888 0.097-1.974-0.875-2.374-1.087-0.448-1.987-0.006-2.167-1.5-0.054-0.447-0.488-2.845 0.532-2.425 0.284 0.117 0.396 1.004 0.669 1.282 0.297 0.301 0.757 0.434 1.095 0.684z" fill="#ccc"/>
	<path stroke="#000" stroke-width=".25" d="m65.51 29.665c-0.244 1.89-1.76 3.059-3.466 3.8-0.673-1.058-0.26-2.622-0.533-3.818-0.122-0.531-0.451-1.111-0.518-1.648-0.086-0.698 0.128-1.394 0.184-2 0.13-1.403 0.488-4.763 2.209-2.487 0.527 0.697 1.725 1.058 2.017 1.861 0.211 0.582-0.109 1.394-0.078 2.007 0.039 0.766 0.285 1.512 0.185 2.285z"/>
	<path stroke="#000" stroke-width=".1" d="m61.156 27.114l0.022-0.249c3.256 0.291 6.478 0.43 9.718 0.43 1.583 0 3.169-0.034 4.768-0.097l0.008 0.249c-1.601 0.064-3.191 0.097-4.776 0.099-3.246 0-6.476-0.139-9.74-0.432z" fill="#ccc"/>
	<path stroke="#000" stroke-width=".25" d="m77.668 38.156s1.167-0.833 1.167 0.667 0 3.166 0.833 3.333 1 1.167 2.5-0.5 2.334-1 3.167-3.333 0.5-2.167 1-4.5-1.167-5.167-2.334-5.667c-1.166-0.5-3-1-3.5-0.333-1.47 1.959 1.486 7.784-2.333 8.333-1.167 0.167-0.5 2-0.5 2z" fill="none"/>
	<path id="brim" stroke="#000" stroke-width=".25" d="m63.251 16.573s-11.333-1-10.667 1.667 3.333 3.333 3.333 3.333l9-0.333-1.666-4.667z"/>
	<path stroke="#000" stroke-width=".25" d="m64.625 21.992c0.512-0.242 1.022-0.565 1.537-0.683 1.389-0.317 2.846-0.093 4.089 0.598 3 1.667 7.333 5 7.333 5l2.659 1.659 6.674 4.341 2.667 1.667s1.333 4 4.666 5c3.334 1 7.334 1.667 7.334 1.667 1.72 0.082 3.615 0.439 5.307 0.355 2.249-0.112 2.786-1.844 3.775-3.762 0.878-1.701 1.988-3.514 2.584-5.243 1.209-3.499 2.38-7.134 2-11.017-0.758-7.753-7.827-15.023-15-17.333-5.983-1.927-12.354-4.012-18.706-4.112-1.934-0.03-3.75 0.233-5.608 0.743-3.253 0.892-4.367 3.441-6.719 5.653-0.798 0.75-1.626 1.446-2.364 2.282-1.533 1.736-10.174 12.667-3.431 13.466 0.415 0.046 0.814-0.093 1.213-0.281z"/>
	<path stroke="#000" stroke-width=".25" d="m77.335 25.656c-0.526-1.774-0.684-3.741-1.236-5.449-0.27-0.834-0.512-1.295-1.335-1.649-0.27-0.116-2.44-0.179-2.463 0.066-0.355 3.837 1.099 8.707 1.625 12.602 0.468 3.458 0.775 7.028 1.575 10.43 0.368 1.564 0.946 3.141 0.956 4.767 0.008 1.321-0.677 2.739-1.035 4.019-0.417 1.495-0.745 3.141-1.421 4.547-0.348 0.722-0.929 1.277-0.318 1.928 0.452 0.481 1.42 0.536 2.021 0.702 0.773 0.213 1.992 0.98 2.555 0.158 0.226-0.33 0.249-1.175 0.356-1.565 0.217-0.792 0.454-1.58 0.692-2.365 0.39-1.287 0.833-2.458 1.426-3.666 0.803-1.633 1.597-3.468 2.977-4.604 1.196-0.985 2.397-1.964 3.605-2.935 1.771-1.422 3.855-3.674 6.02-4.486 1.333-0.5 2.333 0.333 4.333-1 1.555-1.036-1.729-4.095-2.401-4.765-1.02-1.016-1.61-1.637-2.799-0.405-0.865 0.896-1.245 2.141-1.949 3.15-0.534 0.765-1.273 1.191-1.979 1.768-1.066 0.869-2.064 1.838-3.092 2.752-1.206 1.075-2.413 2.149-3.62 3.224-0.338 0.302-1.087 1.238-1.553 1.278-0.691 0.06-1.015-1.657-1.478-2.29-1.07-1.463-0.008-3.109-0.264-4.719-0.265-1.668-0.577-3.33-0.866-4.994l-0.332-6.499z"/>
	<path d="m78.668 36.823s0.333 0.167 1-0.5 0.333-2.167 0.833-2.167-0.167 0.333 0.667 0.5 1.667 0.167 1.5 0.667 0.333 1.5-0.5 1-0.833-0.667-1.5-0.333-1.334 1-2 0.833z"/>
	<path stroke="#000" stroke-width=".1" d="m81.231 31.349c0.4 0.265 1.661 1.27 2.09 0.673 0.754-1.051-1.419-1.932-2.102-1.854 0.505-0.058 0.822-0.618 1.436-0.534 0.441 0.06 0.805 0.415 1.129 0.7 2.396 2.115 1.074 4.992 0.258 7.659-0.26 0.848-0.957 2.04-1.806 2.414-0.401 0.177-2.069 0.372-2.221-0.222 0.116 0.454 1.868-0.14 2.106-0.287 1.516-0.941 2.181-4.439 1.435-5.916-0.255-0.506-0.529-0.64-0.909-1.018-0.51-0.507-0.801-1.208-1.416-1.615z" fill="#FED3A3"/>
	<radialGradient id="SVGID_1_" gradientUnits="userSpaceOnUse" cy="35.24" cx="94.918" r="1.333">
		<stop stop-color="#fff" offset="0"/>
		<stop offset="1"/>
	</radialGradient>
	<circle r="1.333" cy="35.24" stroke="#000" cx="94.918" stroke-width=".25" fill="url(#SVGID_1_)"/>
	<radialGradient id="SVGID_2_" gradientUnits="userSpaceOnUse" cy="19.573" cx="74.252" r="1.3335">
		<stop stop-color="#fff" offset="0"/>
		<stop offset="1"/>
	</radialGradient>
	<circle r="1.333" cy="19.573" stroke="#000" cx="74.251" stroke-width=".25" fill="url(#SVGID_2_)"/>
	<ellipse rx="9.333" cy="15.406" ry="8.833" stroke="#000" cx="89.251" stroke-width=".2432" fill="#fff"/>
	<ellipse rx="6.333" cy="15.406" ry="5.833" stroke="#000" cx="89.251" stroke-width=".2399" fill="#29292A"/>
	<path stroke="#000" stroke-width=".25" d="m106.95 19.662c-0.154 0.052-0.298 0.129-0.43 0.238-1.042 0.858 0.027 2.402 0.732 3.007 2.334 2 6 4 6.334 3.333 0.247-0.495-0.342-1.111-0.554-1.511-0.37-0.702-0.683-1.386-1.142-2.044-0.234-0.338-0.506-0.657-0.754-0.99-0.79-1.057-2.82-2.495-4.19-2.033z" fill="#ccc"/>
	<path stroke="#000" stroke-width=".25" d="m107.9 21.293c0.103 0.457 0.585 0.953 0.822 1.314 0.615 0.937 1.113 1.464 2.146 1.844 0.711 0.262 2.566 0.961 2.263-0.505-0.181-0.87-1.153-1.98-1.767-2.612-0.505-0.521-1.54-1.16-2.285-1.193-0.466-0.021-1.131 0.419-1.193 0.91-0.01 0.08-0.01 0.16 0.01 0.242z" fill="#1A1A1A"/>
	<path stroke="#000" stroke-width=".25" d="m108.1 31.344c1.18 0.652 3.234 1.256 2.979-0.847-0.147-1.207-2.09-2.233-3.104-2.528-0.553-0.161-1.34-0.427-1.965-0.222-2.3 0.751 1.31 3.172 2.08 3.597z" fill="#333"/>
</g>
<metadata><rdf:RDF><cc:Work><dc:format>image/svg+xml</dc:format><dc:type rdf:resource="http://purl.org/dc/dcmitype/StillImage"/><cc:license rdf:resource="http://creativecommons.org/licenses/publicdomain/"/><dc:publisher><cc:Agent rdf:about="http://openclipart.org/"><dc:title>Openclipart</dc:title></cc:Agent></dc:publisher></cc:Work><cc:License rdf:about="http://creativecommons.org/licenses/publicdomain/"><cc:permits rdf:resource="http://creativecommons.org/ns#Reproduction"/><cc:permits rdf:resource="http://creativecommons.org/ns#Distribution"/><cc:permits rdf:resource="http://creativecommons.org/ns#DerivativeWorks"/></cc:License></rdf:RDF></metadata></svg>
